<svg width="22" height="23" viewBox="0 0 22 23" fill="none" xmlns="http://www.w3.org/2000/svg">
    <g clip-path="url(#clip0_535_746)">
        <path
            d="M11.0879 4.50502C10.8082 4.50502 10.5879 4.32475 10.5879 4.09595V0.809467C10.5879 0.580662 10.8082 0.400391 11.0879 0.400391C11.3676 0.400391 11.5879 0.580662 11.5879 0.809467V4.09595C11.5879 4.32475 11.3676 4.50502 11.0879 4.50502Z"
            fill="#848484" />
        <path
            d="M21.591 11.9941H18.3114C18.0826 11.9941 17.9023 11.7738 17.9023 11.4941C17.9023 11.2145 18.0826 10.9941 18.3114 10.9941H21.591C21.8198 10.9941 22 11.2145 22 11.4941C22 11.7738 21.8198 11.9941 21.591 11.9941Z"
            fill="#848484" />
        <path
            d="M11.0879 22.4004C10.8082 22.4004 10.5879 22.2202 10.5879 21.9914V18.7118C10.5879 18.483 10.8082 18.3027 11.0879 18.3027C11.3676 18.3027 11.5879 18.483 11.5879 18.7118V21.9914C11.5879 22.2202 11.3676 22.4004 11.0879 22.4004Z"
            fill="#848484" />
        <path
            d="M3.69556 11.9941H0.409077C0.180271 11.9941 0 11.7738 0 11.4941C0 11.2145 0.180271 10.9941 0.409077 10.9941H3.69556C3.92436 10.9941 4.10463 11.2145 4.10463 11.4941C4.10463 11.7738 3.92436 11.9941 3.69556 11.9941Z"
            fill="#848484" />
        <path
            d="M10.9971 13.6222C12.2263 13.6222 13.2228 12.6257 13.2228 11.3966C13.2228 10.1674 12.2263 9.1709 10.9971 9.1709C9.76794 9.1709 8.77148 10.1674 8.77148 11.3966C8.77148 12.6257 9.76794 13.6222 10.9971 13.6222Z"
            fill="#848484" />
        <path
            d="M11 18.4004C14.866 18.4004 18 15.2664 18 11.4004C18 7.5344 14.866 4.40039 11 4.40039C7.134 4.40039 4 7.5344 4 11.4004C4 15.2664 7.134 18.4004 11 18.4004Z"
            stroke="#848484" stroke-width="1.5" stroke-miterlimit="10" />
    </g>
    <defs>
        <clipPath id="clip0_535_746">
            <rect width="22" height="22" fill="white" transform="translate(0 0.400391)" />
        </clipPath>
    </defs>
</svg>